<?xml version="1.0" encoding="UTF-8" standalone="no"?>
<!-- Created with Inkscape (http://www.inkscape.org/) -->
<svg
   xmlns:dc="http://purl.org/dc/elements/1.1/"
   xmlns:cc="http://web.resource.org/cc/"
   xmlns:rdf="http://www.w3.org/1999/02/22-rdf-syntax-ns#"
   xmlns:svg="http://www.w3.org/2000/svg"
   xmlns="http://www.w3.org/2000/svg"
   xmlns:sodipodi="http://sodipodi.sourceforge.net/DTD/sodipodi-0.dtd"
   xmlns:inkscape="http://www.inkscape.org/namespaces/inkscape"
   id="svg2213"
   sodipodi:version="0.32"
   inkscape:version="0.45.1"
   width="168"
   height="250"
   version="1.0"
   sodipodi:docbase="/home/zolk/Pictures/png_to_svg"
   sodipodi:docname="0_ressort_de_compression.svg"
   inkscape:output_extension="org.inkscape.output.svg.inkscape">
  <metadata
     id="metadata2218">
    <rdf:RDF>
      <cc:Work
         rdf:about="">
        <dc:format>image/svg+xml</dc:format>
        <dc:type
           rdf:resource="http://purl.org/dc/dcmitype/StillImage" />
      </cc:Work>
    </rdf:RDF>
  </metadata>
  <defs
     id="defs2216" />
  <sodipodi:namedview
     inkscape:window-height="1338"
     inkscape:window-width="1800"
     inkscape:pageshadow="2"
     inkscape:pageopacity="0.0"
     guidetolerance="10.0"
     gridtolerance="10.0"
     objecttolerance="10.0"
     borderopacity="1.0"
     bordercolor="#666666"
     pagecolor="#ffffff"
     id="base"
     inkscape:zoom="4.56"
     inkscape:cx="84"
     inkscape:cy="125"
     inkscape:window-x="0"
     inkscape:window-y="31"
     inkscape:current-layer="svg2213" />
  <path
     style="fill:#000000"
     d="M 87.959531,240 L 87.5,236.5 L 61.066889,236.83608 C 46.528678,237.02093 32.682804,236.8796 30.29828,236.52202 C 20.149766,235.00016 14.725225,222.21229 20.781294,214.08658 C 24.095413,209.63987 28.156746,208.05355 40.107051,206.53812 C 46.373173,205.74351 53.743106,204.77172 56.48468,204.37859 L 61.46936,203.66382 L 53.98468,201.80978 C 45.86027,199.79728 40.513041,198.60388 32.024706,196.90876 C 25.396039,195.58501 21.782943,193.1697 19.623287,188.61856 C 16.588076,182.22233 18.12147,175.40941 23.558949,171.13229 C 25.878442,169.30778 35.017038,166.09015 55,160.06213 C 73.109388,154.5993 81.62469,151.86197 82.814639,151.12085 C 83.668528,150.58903 82.091385,149.86409 78.314639,149.05241 C 75.116588,148.3651 70.925,147.45022 69,147.01933 C 58.869428,144.75176 34.848195,140 33.51568,140 C 30.355234,140 22.806941,135.61344 20.290777,132.31458 C 16.069645,126.78039 17.253111,117.49934 22.767507,112.89142 C 25.046896,110.98672 29.38557,109.37925 45.5,104.46905 C 52.1,102.45798 62.675,99.236698 69,97.310649 C 83.774487,92.811617 84.933749,92.349792 83,91.733355 C 80.409219,90.90747 63.767753,87.128492 57.5,85.942763 C 54.2,85.318471 49.925,84.446342 48,84.004698 C 43.236145,82.91175 34.25624,80.953606 29.985457,80.076476 C 20.160734,78.058681 14.865842,69.043521 18.457174,60.448254 C 20.978082,54.414872 22.479671,53.358343 33.342145,49.975088 C 38.928965,48.235001 46.568466,45.7977 50.318814,44.558862 L 57.137628,42.30643 L 41.818814,41.071534 C 23.902435,39.627241 21.459341,38.653026 18.629297,31.824423 C 16.067236,25.642435 16.994927,21.140764 21.891768,15.993115 L 25.690328,12 L 54.263376,12 C 69.978553,12 83.548229,11.726855 84.418213,11.393011 C 85.288196,11.059167 86,9.9341674 86,8.8930112 C 86,7.851855 86.45,7 87,7 C 87.55,7 88,7.9 88,9 C 88,10.1 88.5625,11.019779 89.25,11.043954 C 89.9375,11.068129 105.27389,11.0505 123.33087,11.004778 C 154.3546,10.926225 156.14341,11.020132 155.82871,12.710825 C 155.60747,13.8994 154.06974,14.816236 151.24784,15.442061 C 148.91153,15.960195 147,16.747695 147,17.192061 C 147,17.636428 147.42682,18 147.94848,18 C 149.30996,18 153.47963,22.090666 154.94301,24.861997 C 156.69543,28.180698 156.43782,36.40217 154.48819,39.377686 C 153.59325,40.743527 151.8798,42.492789 150.68052,43.264933 C 148.64557,44.575112 137.4812,48.379627 123.5,52.527317 C 120.2,53.506301 114.35,55.308385 110.5,56.531947 C 106.65,57.755509 100.6875,59.571532 97.25,60.567555 C 93.8125,61.563577 91,62.67487 91,63.037095 C 91,63.399319 95.8375,64.722903 101.75,65.978392 C 117.21695,69.26272 137.56616,73.75391 144.31087,75.371826 C 151.06335,76.991609 154.58562,79.884879 156.14621,85.093652 C 157.65419,90.126847 156.49342,95.368436 152.98623,99.362905 C 149.98206,102.78446 149.18803,103.0984 123.5,111.02095 C 106.44347,116.28142 89.452443,121.93031 90.5,121.99224 C 91.05,122.02475 95.325,122.97288 100,124.0992 C 109.04734,126.27892 109.93002,126.47279 128.5,130.3587 C 135.1,131.7398 141.175,133.0865 142,133.35137 C 142.825,133.61624 144.70282,134.09541 146.17293,134.41619 C 149.98535,135.24805 154.8195,139.63361 156.59342,143.86968 C 159.33032,150.40531 155.23391,159.17937 148.22432,161.79535 C 146.72594,162.35455 141.45,164.02938 136.5,165.5172 C 131.55,167.00502 124.35,169.24284 120.5,170.49013 C 116.65,171.73742 110.8,173.54053 107.5,174.49703 C 93.102091,178.67027 90.451725,179.68954 92.5,180.26567 C 93.6,180.57508 99.9,182.01926 106.5,183.47496 C 152.34049,193.58561 150.1042,192.96806 153.67113,196.50118 C 157.05914,199.85709 158.6614,205.22862 157.5707,209.57435 C 157.21352,210.99747 155.25149,213.93549 153.21064,216.10329 C 149.71604,219.81525 148.97601,220.12132 140.5,221.36019 L 131.5,222.67565 L 137.5,223.96911 C 149.7743,226.61516 153.95398,228.12604 155.92239,230.62846 C 160.10138,235.94119 159.74041,236 122.95338,236 L 89.120731,236 L 88.769897,239.75 L 88.419063,243.5 L 87.959531,240 z M 73.25,233.05915 L 88,233 L 88,226.97525 C 88,219.69026 87.931683,219.65024 71.5513,217.33929 C 65.473085,216.48177 58.25,215.40009 55.5,214.93555 C 52.75,214.47101 47.257408,213.63404 43.294239,213.07562 C 39.331071,212.5172 34.992037,211.78512 33.651943,211.44878 C 30.740678,210.7181 25.765693,213.06873 23.560704,216.21679 C 21.547006,219.09175 21.555619,225.92054 23.576583,228.80587 C 26.568001,233.07672 30.389907,233.91425 45,233.50055 C 52.425,233.29031 65.1375,233.09168 73.25,233.05915 z M 148.5,231.96805 L 152.5,231.92172 L 149.5,230.6566 C 147.85,229.96078 143.35,228.83646 139.5,228.1581 C 123.69635,225.37354 121.18176,224.96407 114,224.00569 C 100.71267,222.23256 92.542563,220.96923 90.75,220.4106 C 89.202851,219.92844 89,220.6441 89,226.58459 L 89,233.30397 L 116.75,232.65918 C 132.0125,232.30454 146.3,231.99353 148.5,231.96805 z M 129.90146,218.9993 C 130.77955,218.53043 129.09903,217.81557 125.40146,217.08508 C 115.70875,215.1702 110.87319,214.15071 103.5,212.46757 C 99.65,211.5887 94.8125,210.61471 92.75,210.30314 C 89.107388,209.75288 89,209.82465 89,212.80931 C 89,214.49927 89.398098,216.128 89.884661,216.42872 C 90.693854,216.92883 96.154886,217.91757 109.5,219.98015 C 114.92371,220.81843 127.63954,220.20708 129.90146,218.9993 z M 148.31574,215.88296 C 153.99959,212.97621 155.63607,206.19541 152.06654,200.34139 C 150.58463,197.91107 148.91384,196.84868 144.82027,195.7338 C 138.38908,193.98226 123.41328,190.61638 112.5,188.46967 C 103.62576,186.72405 92.519639,184.13663 90.38499,183.31749 C 89.254219,182.88358 89,184.9082 89,194.3477 L 89,205.90937 L 92.75,206.53332 C 97.173123,207.26927 113.20304,210.82513 117.5,212.02352 C 119.15,212.4837 122.525,213.16513 125,213.53781 C 127.475,213.91049 131.75,214.81233 134.5,215.5419 C 140.77226,217.2059 145.50061,217.32263 148.31574,215.88296 z M 88,212.51905 C 88,209.52517 87.615208,208.95911 85.25,208.47359 C 83.7375,208.1631 80.872791,207.47953 78.88398,206.95453 C 74.269773,205.7365 67.05593,205.73474 61.69282,206.95034 C 59.386769,207.47302 55.35379,208.1769 52.730646,208.51451 C 47.057261,209.2447 47.285346,210.51884 53.227041,211.28749 C 68.991629,213.32689 80.400004,215.06667 80.830332,215.497 C 81.106983,215.77365 82.833333,216 84.666667,216 C 87.806049,216 88,215.79746 88,212.51905 z M 87.249409,194.47332 C 87.111584,188.98799 86.788207,183.9375 86.530794,183.25 C 86.27338,182.5625 84.863355,182 83.397404,182 C 81.931453,182 79.10483,181.56959 77.11602,181.04353 C 70.715838,179.35063 56.723801,176.16412 48.5,174.5266 C 44.1,173.65047 38.593101,172.44166 36.262447,171.84034 C 31.221049,170.53965 27.025804,171.88044 23.966106,175.77022 C 21.192016,179.2969 21.342909,185.73317 24.279734,189.14778 C 26.668974,191.92572 27.800843,192.27383 51.5,197.5195 C 73.017128,202.2822 80.466563,203.92628 82.5,204.36115 C 87.357555,205.39999 87.515682,205.07079 87.249409,194.47332 z M 93.253255,175.09785 C 104.80688,171.47167 125.35402,165.13666 130,163.76825 C 137.23644,161.63685 137.85383,161.92109 116.5,157.55283 C 109.9,156.2027 101.92096,154.40891 98.768797,153.56663 C 92.749385,151.9582 88.015186,152.68633 87.984687,155.22525 C 87.972527,156.23756 87.799458,156.23212 87.144046,155.19883 C 86.544256,154.25323 85.660308,154.16037 83.909358,154.85902 C 82.584211,155.38777 77.9,156.93081 73.5,158.288 C 66.597303,160.41716 63.729975,161.23521 58.5,162.5675 C 57.95,162.70761 53.564616,164.12261 48.754702,165.71193 L 40.009403,168.60162 L 43.254702,169.75759 C 45.039616,170.39338 49.425,171.39818 53,171.99048 C 60.381258,173.2134 65.106104,174.23729 73,176.32456 C 80.986207,178.43623 83.00647,178.31387 93.253255,175.09785 z M 87,168.39235 C 87,165.24322 87.274318,162.94098 87.609595,163.27626 C 88.72297,164.38964 89.066482,172.84088 88.024536,173.48484 C 87.37072,173.88892 87,172.04624 87,168.39235 z M 150.13428,156.17133 C 152.77282,153.81379 153.31676,152.57811 153.40006,148.75233 C 153.56831,141.0247 148.99391,137.99842 132.5,134.92552 C 129.2,134.31071 124.925,133.45619 123,133.02659 C 105.47583,129.11571 93.966385,126.66345 91.25,126.26177 L 88,125.78119 L 88,136.77709 L 88,147.773 L 90.75,148.24594 C 96.880797,149.3003 114.99215,153.15425 122.5,155.00209 C 141.72,159.73254 145.94836,159.91145 150.13428,156.17133 z M 86.782751,135.78926 L 86.5,124.57852 L 83,123.78107 C 81.075,123.34247 76.125,122.31283 72,121.49298 C 67.875,120.67313 62.7,119.57239 60.5,119.04689 C 58.3,118.52139 54.7,117.66456 52.5,117.14283 C 50.3,116.6211 44.633732,115.43973 39.908293,114.51756 C 32.108836,112.99549 30.975932,112.98322 27.622304,114.38445 C 21.032589,117.13781 19.163378,127.06953 24.345404,131.79568 C 27.119858,134.32605 39.996042,138.06977 56,140.99916 C 71.438478,143.82505 77.907951,145.09076 81,145.89028 C 87.354433,147.53335 87.090578,147.99424 86.782751,135.78926 z M 85.456513,119.37831 C 86.818405,118.85571 87.052683,117.12305 86.926522,108.50647 C 86.843979,102.86888 86.445445,97.720745 86.040891,97.066162 C 85.493859,96.181047 83.279885,96.514488 77.402668,98.367143 C 73.056201,99.737265 64.1,102.52043 57.5,104.55195 C 37.677603,110.6534 38.461631,110.10735 46.557894,112.17277 C 50.376052,113.14681 58.45,114.91256 64.5,116.09667 C 70.55,117.28077 76.175,118.62975 77,119.09439 C 78.785597,120.10003 83.190354,120.24792 85.456513,119.37831 z M 96.92482,115.49736 C 101.09117,114.12091 105.85,112.60769 107.5,112.13465 C 114.72246,110.06403 122.96562,107.5023 128.86926,105.49371 L 135.23852,103.3267 L 130.86926,102.23251 C 128.46617,101.6307 123.125,100.41675 119,99.534841 C 111.22915,97.87346 107.07709,96.938992 98.40897,94.900594 C 95.608903,94.24213 92.121403,94.003698 90.65897,94.370745 L 88,95.038104 L 88,106.51905 C 88,112.83357 88.303669,118 88.67482,118 C 89.045971,118 92.758471,116.87381 96.92482,115.49736 z M 147.73168,99.483968 C 151.55018,97.57905 153.53043,92.915529 153.11515,86.805764 C 153.05182,85.873934 151.9875,83.936402 150.75,82.500139 C 148.4948,79.882709 140.38869,77.599419 115,72.430248 C 110.875,71.590393 105.7,70.501038 103.5,70.009461 C 91.896197,67.416658 89.459951,67.036629 87.806446,67.561432 C 86.812901,67.876771 86,67.699622 86,67.167769 C 86,66.635915 82.5125,65.460989 78.25,64.556823 C 73.9875,63.652656 66.9,62.046198 62.5,60.986916 C 58.1,59.927634 52.025,58.596745 49,58.029386 C 38.53875,56.067307 33.862727,55.033194 32.977199,54.485908 C 31.452845,53.543806 25.439307,56.626053 23.1679,59.513679 C 20.630681,62.73923 20.391603,66.922811 22.51035,71.020016 C 24.422003,74.716745 25.82539,75.441686 35.01649,77.480254 C 39.13242,78.393159 44.075,79.511039 46,79.964431 C 47.925,80.417823 53.1,81.551786 57.5,82.484349 C 61.9,83.416911 67.075,84.546165 69,84.993802 C 72.001626,85.691796 76.61595,86.647352 85.5,88.410701 C 86.6,88.629035 92.225,89.941246 98,91.326726 C 103.775,92.712205 110.975,94.31953 114,94.898557 C 124.95722,96.995923 138.35232,100.01899 138.83727,100.50394 C 139.85108,101.51775 144.79026,100.95134 147.73168,99.483968 z M 86,80.5 C 86,77.475 86.45,75 87,75 C 87.55,75 88,77.475 88,80.5 C 88,83.525 87.55,86 87,86 C 86.45,86 86,83.525 86,80.5 z M 86,52 L 86,43 L 80.75,42.92569 C 77.8625,42.884819 74.386203,42.647184 73.024895,42.397611 C 71.663588,42.148038 69.413588,42.370477 68.024895,42.89192 C 66.636203,43.413363 62.8,44.619644 59.5,45.572545 C 46.921396,49.204714 39.872825,51.803367 40.891647,52.433034 C 41.473309,52.792521 45.448142,53.788711 49.724607,54.646789 C 59.838441,56.676143 64.291499,57.666105 71,59.376536 C 74.025,60.147804 78.6375,60.828603 81.25,60.889421 L 86,61 L 86,52 z M 96.933421,57.096117 C 99.995039,56.048982 106.55,53.97763 111.5,52.493115 C 125.99769,48.145226 133.14275,45.806541 132.81043,45.517897 C 132.42436,45.182574 108.45511,44.063922 97,43.846613 L 88.5,43.685364 L 88.207936,51.342682 C 87.870259,60.195852 87.870309,60.195885 96.933421,57.096117 z M 150.63388,38.508981 C 152.65962,36.483242 153.45686,30.243652 152.12967,26.802299 C 149.98195,21.233359 147.1054,20.667484 115,19.498133 C 106.475,19.187633 96.9125,18.740451 93.75,18.504396 L 88,18.075204 L 88,28.931149 L 88,39.787094 L 104.75,40.395662 C 113.9625,40.730374 126.225,41.355238 132,41.784248 C 142.93216,42.596369 147.31725,41.825604 150.63388,38.508981 z M 86,29.129166 L 86,18.258333 L 80.25,17.655638 C 77.0875,17.324157 63.681448,16.751921 50.458774,16.384003 L 26.417548,15.715061 L 23.708774,18.934256 C 19.257493,24.224303 20.354628,32.006126 26.023891,35.355042 C 28.336431,36.721093 33.580795,37.242743 53.688679,38.106821 C 67.334906,38.693229 78.6875,39.359088 78.916667,39.586509 C 79.145833,39.813929 80.833333,40 82.666667,40 L 86,40 L 86,29.129166 z M 116.25,15.337719 C 115.5625,15.060307 114.4375,15.060307 113.75,15.337719 C 113.0625,15.615132 113.625,15.842105 115,15.842105 C 116.375,15.842105 116.9375,15.615132 116.25,15.337719 z M 135.91667,14.359122 C 136.14583,14.161605 133.22083,14.031628 129.41667,14.070285 C 124.75164,14.11769 123.15108,14.411008 124.5,14.97131 C 126.29435,15.716628 134.87551,15.256486 135.91667,14.359122 z "
     id="path2222" />
</svg>
